<?xml version="1.0" encoding="UTF-8" standalone="no"?> <svg xmlns:dc="http://purl.org/dc/elements/1.1/" xmlns:cc="http://creativecommons.org/ns#" xmlns:rdf="http://www.w3.org/1999/02/22-rdf-syntax-ns#" xmlns:svg="http://www.w3.org/2000/svg" xmlns="http://www.w3.org/2000/svg" viewBox="0 0 1134.8674 200.00002" height="200.00002" width="1134.8674" xml:space="preserve" id="svg2" version="1.1"><metadata id="metadata8"></metadata><defs id="defs6"></defs><g transform="matrix(1.3333333,0,0,-1.3333333,-52.181922,204.59733)" id="g10"><g transform="scale(0.1)" id="g12"><path id="path14" style="fill:#040606;fill-opacity:1;fill-rule:nonzero;stroke:none" d="m 3335.3,1197.88 c 52.44,-22.58 98.15,-53.31 137.11,-92.24 38.92,-38.95 69.67,-84.66 92.23,-137.113 22.54,-52.48 33.82,-108.211 33.82,-167.246 0,-59.023 -11.28,-114.785 -33.82,-167.234 -22.56,-52.481 -53.31,-98.195 -92.23,-137.125 -38.96,-38.953 -84.67,-69.684 -137.11,-92.231 -52.48,-22.55 -108.22,-33.812 -167.25,-33.812 h -152.49 l 100.77,147.562 h 51.72 c 37.7,0 73.78,7.18 108.22,21.52 34.42,14.348 65.17,34.633 92.22,60.871 26.22,27.063 46.53,57.59 60.87,91.613 14.35,34.012 21.52,70.293 21.52,108.836 0,37.696 -7.17,73.789 -21.52,108.223 -14.34,34.414 -34.65,65.168 -60.87,92.216 -27.05,26.23 -57.8,46.53 -92.22,60.87 -34.44,14.35 -70.52,21.52 -108.22,21.52 H 2959 V 727.504 518.441 370.879 h -147.58 v 860.811 h 356.63 c 59.03,0 114.77,-11.28 167.25,-33.81"></path><path id="path16" style="fill:#040606;fill-opacity:1;fill-rule:nonzero;stroke:none" d="M 3832.1,370.879 H 3684.52 V 1230.45 H 3832.1 V 370.879"></path><path id="path18" style="fill:#040606;fill-opacity:1;fill-rule:nonzero;stroke:none" d="m 4811.57,839.406 c 1.22,-12.293 1.83,-24.597 1.83,-36.894 0,-61.492 -11.69,-119.5 -35.04,-174.012 -23.35,-54.531 -55.33,-102.051 -95.91,-142.641 -40.59,-40.578 -88.15,-72.558 -142.66,-95.929 -54.53,-23.352 -112.52,-35.032 -174,-35.032 -61.5,0 -119.5,11.68 -174.02,35.032 -54.53,23.371 -102.05,55.351 -142.63,95.929 -40.59,40.59 -72.56,88.11 -95.93,142.641 -23.36,54.512 -35.04,112.52 -35.04,174.012 0,61.484 11.68,119.472 35.04,174.004 23.37,54.514 55.34,102.074 95.93,142.654 40.58,40.59 88.1,72.54 142.63,95.91 54.52,23.36 112.52,35.05 174.02,35.05 62.29,0 120.5,-11.69 174.62,-35.05 54.1,-23.37 101.25,-55.54 141.41,-96.53 l -103.29,-104.53 c -28.7,28.69 -61.3,50.62 -97.76,65.79 -36.49,15.17 -74.84,22.76 -114.98,22.76 -40.18,0 -78.3,-7.59 -114.37,-22.76 -36.09,-15.17 -68.46,-37.1 -97.15,-65.79 -28.7,-28.704 -50.62,-61.079 -65.79,-97.141 -15.17,-36.094 -22.74,-74.219 -22.74,-114.367 0,-40.176 7.57,-78.516 22.74,-114.969 15.17,-36.504 37.09,-69.082 65.79,-97.766 28.69,-28.718 61.06,-50.437 97.15,-65.199 36.07,-14.75 74.19,-22.117 114.37,-22.117 40.14,0 78.49,7.367 114.98,22.117 36.46,14.762 69.06,36.481 97.76,65.199 38.52,40.149 64.75,86.465 78.7,138.946 h -374.21 l 74.36,147.57 h 449.88 c 1.63,-12.297 3.07,-24.59 4.31,-36.887"></path><path id="path20" style="fill:#040606;fill-opacity:1;fill-rule:nonzero;stroke:none" d="m 5059.34,370.879 h -147.58 v 859.571 h 147.58 V 370.879"></path><path id="path22" style="fill:#040606;fill-opacity:1;fill-rule:nonzero;stroke:none" d="m 8333.45,368.852 v 867.538 h 569.42 V 1097.58 H 8488.03 V 879.914 h 367.52 V 739.535 H 8488.03 V 509.238 h 414.84 V 368.852 Z m -2257.6,860.068 h -162.34 l -66.4,-147.56 -66.42,-147.579 -174.6,-386.121 -174.63,386.121 -66.41,147.579 -66.39,147.56 h -162.34 l 388.61,-860.818 h 162.29 z M 5850.71,368.102 h 162.33 l 66.4,147.57 66.42,147.574 174.6,386.124 174.63,-386.124 h -271.8 l -64.66,-140.598 402.87,-6.976 66.4,-147.57 h 162.33 l -388.6,860.818 h -162.3 z m 2407.26,863.588 h -652.98 v -147.58 h 253.32 V 370.879 h 147.55 v 713.231 h 252.11 z m -886.61,1.22 V 643.879 l -345.53,589.031 h -159.9 V 372.102 h 147.57 v 589.043 l 345.57,-589.043 h 159.86 v 860.808 h -147.57"></path><path id="path24" style="fill:#0075ff;fill-opacity:1;fill-rule:nonzero;stroke:none" d="m 1680.49,1203.68 193.19,318.77 c 3.03,5.37 -0.84,12.03 -7.01,12.03 H 520.039 c -5.465,0 -9.34,-5.32 -7.676,-10.52 L 680.73,1223.59 c 23.762,-43.39 37.297,-50.07 68.625,-50.07 h 879.435 c 21.4,0 41.16,11.52 51.7,30.16 z M 1944.84,37.1211 1011.16,37.1914 933.176,37.1289 c -6.442,0 -10.297,7.1719 -6.738,12.543 L 1159.5,401.422 c 9.38,14.066 25.18,22.519 42.09,22.519 l 533.24,-0.05 c 22.67,-0.012 43.8,11.461 56.14,30.48 l 185.29,291.414 c 15,23.094 14.31,53.028 -1.72,75.418 l -216.05,302.327 c -15.55,21.72 -16.71,50.61 -2.92,73.51 l 184.76,306.7 c 4.66,7.73 15.7,8.17 20.96,0.83 l 481.3,-672.683 c 16.04,-22.391 16.71,-52.313 1.72,-75.41 L 2000.97,67.6016 c -12.34,-19 -33.46,-30.4805 -56.13,-30.4805"></path><path id="path26" style="fill:#0075ff;fill-opacity:1;fill-rule:nonzero;stroke:none" d="M 1311.49,760.395 C 1309.48,756.938 984.465,266.809 847.891,54.1914 835.996,37.4609 823.543,36.5 804.852,36.0586 676.828,33.0508 548.703,35.3516 420.605,34.8906 393.059,34.7891 387.109,32.2617 393.973,42.0117 466.02,144.98 792.953,632.738 879.813,759.113 c 20.07,29.2 41.945,42.93 78.664,42.2 111.193,-2.188 233.443,-2.258 344.683,-2.473 33.56,0.43 23.83,-11.738 8.33,-38.445"></path></g></g></svg> 